<mxfile host="app.diagrams.net" modified="2023-08-21T04:16:32.253Z" agent="Mozilla/5.0 (Windows NT 10.0; Win64; x64) AppleWebKit/537.36 (KHTML, like Gecko) Chrome/115.0.0.0 Safari/537.36 Edg/115.0.1901.203" etag="MrC25try6DzllKK08GL_" version="21.6.8" type="device">
  <diagram id="6a731a19-8d31-9384-78a2-239565b7b9f0" name="拓扑图">
    <mxGraphModel dx="1645" dy="1890" grid="1" gridSize="10" guides="1" tooltips="1" connect="1" arrows="1" fold="1" page="1" pageScale="1" pageWidth="827" pageHeight="1169" background="none" math="0" shadow="0">
      <root>
        <mxCell id="0" />
        <mxCell id="1" parent="0" />
        <mxCell id="ALVtA8sfWFsUMaP69Oiq-2290" style="edgeStyle=orthogonalEdgeStyle;rounded=0;orthogonalLoop=1;jettySize=auto;html=1;" parent="1" source="ALVtA8sfWFsUMaP69Oiq-2257" target="ALVtA8sfWFsUMaP69Oiq-2286" edge="1">
          <mxGeometry relative="1" as="geometry" />
        </mxCell>
        <mxCell id="ALVtA8sfWFsUMaP69Oiq-2291" value="40G" style="edgeLabel;html=1;align=center;verticalAlign=middle;resizable=0;points=[];" parent="ALVtA8sfWFsUMaP69Oiq-2290" vertex="1" connectable="0">
          <mxGeometry x="0.0351" y="-2" relative="1" as="geometry">
            <mxPoint y="1" as="offset" />
          </mxGeometry>
        </mxCell>
        <mxCell id="ALVtA8sfWFsUMaP69Oiq-2257" value="RSR-7708&lt;br&gt;出口路由器" style="shape=mxgraph.cisco.routers.netflow_router;sketch=0;html=1;pointerEvents=1;dashed=0;fillColor=#036897;strokeColor=#ffffff;strokeWidth=2;verticalLabelPosition=bottom;verticalAlign=top;align=center;outlineConnect=0;" parent="1" vertex="1">
          <mxGeometry x="303.63" y="-820" width="123.25" height="70" as="geometry" />
        </mxCell>
        <mxCell id="ALVtA8sfWFsUMaP69Oiq-2258" value="移动" style="shape=mxgraph.cisco.storage.cloud;sketch=0;html=1;pointerEvents=1;dashed=0;fillColor=#036897;strokeColor=#ffffff;strokeWidth=2;verticalLabelPosition=bottom;verticalAlign=top;align=center;outlineConnect=0;" parent="1" vertex="1">
          <mxGeometry x="20" y="-1070" width="186" height="106" as="geometry" />
        </mxCell>
        <mxCell id="ALVtA8sfWFsUMaP69Oiq-2260" value="电信" style="shape=mxgraph.cisco.storage.cloud;sketch=0;html=1;pointerEvents=1;dashed=0;fillColor=#036897;strokeColor=#ffffff;strokeWidth=2;verticalLabelPosition=bottom;verticalAlign=top;align=center;outlineConnect=0;" parent="1" vertex="1">
          <mxGeometry x="420" y="-1100" width="186" height="106" as="geometry" />
        </mxCell>
        <mxCell id="ALVtA8sfWFsUMaP69Oiq-2259" value="联通" style="shape=mxgraph.cisco.storage.cloud;sketch=0;html=1;pointerEvents=1;dashed=0;fillColor=#036897;strokeColor=#ffffff;strokeWidth=2;verticalLabelPosition=bottom;verticalAlign=top;align=center;outlineConnect=0;" parent="1" vertex="1">
          <mxGeometry x="223" y="-1100" width="186" height="106" as="geometry" />
        </mxCell>
        <mxCell id="ALVtA8sfWFsUMaP69Oiq-2275" value="教育网" style="shape=mxgraph.cisco.storage.cloud;sketch=0;html=1;pointerEvents=1;dashed=0;fillColor=#036897;strokeColor=#ffffff;strokeWidth=2;verticalLabelPosition=bottom;verticalAlign=top;align=center;outlineConnect=0;" parent="1" vertex="1">
          <mxGeometry x="620" y="-1070" width="186" height="106" as="geometry" />
        </mxCell>
        <mxCell id="ALVtA8sfWFsUMaP69Oiq-2278" value="" style="endArrow=classic;startArrow=classic;html=1;rounded=0;entryX=0.5;entryY=0.99;entryDx=0;entryDy=0;entryPerimeter=0;exitX=0.5;exitY=0;exitDx=0;exitDy=0;exitPerimeter=0;" parent="1" source="ALVtA8sfWFsUMaP69Oiq-2257" target="ALVtA8sfWFsUMaP69Oiq-2275" edge="1">
          <mxGeometry width="50" height="50" relative="1" as="geometry">
            <mxPoint x="640" y="-770" as="sourcePoint" />
            <mxPoint x="690" y="-820" as="targetPoint" />
          </mxGeometry>
        </mxCell>
        <mxCell id="ALVtA8sfWFsUMaP69Oiq-2285" value="150MB&lt;br&gt;" style="edgeLabel;html=1;align=center;verticalAlign=middle;resizable=0;points=[];" parent="ALVtA8sfWFsUMaP69Oiq-2278" vertex="1" connectable="0">
          <mxGeometry x="-0.0179" y="2" relative="1" as="geometry">
            <mxPoint y="1" as="offset" />
          </mxGeometry>
        </mxCell>
        <mxCell id="ALVtA8sfWFsUMaP69Oiq-2279" value="" style="endArrow=classic;startArrow=classic;html=1;rounded=0;entryX=0.5;entryY=0.99;entryDx=0;entryDy=0;entryPerimeter=0;exitX=0.5;exitY=0;exitDx=0;exitDy=0;exitPerimeter=0;" parent="1" source="ALVtA8sfWFsUMaP69Oiq-2257" target="ALVtA8sfWFsUMaP69Oiq-2260" edge="1">
          <mxGeometry width="50" height="50" relative="1" as="geometry">
            <mxPoint x="640" y="-770" as="sourcePoint" />
            <mxPoint x="690" y="-820" as="targetPoint" />
          </mxGeometry>
        </mxCell>
        <mxCell id="ALVtA8sfWFsUMaP69Oiq-2284" value="10G" style="edgeLabel;html=1;align=center;verticalAlign=middle;resizable=0;points=[];" parent="ALVtA8sfWFsUMaP69Oiq-2279" vertex="1" connectable="0">
          <mxGeometry x="0.2229" y="-2" relative="1" as="geometry">
            <mxPoint y="-1" as="offset" />
          </mxGeometry>
        </mxCell>
        <mxCell id="ALVtA8sfWFsUMaP69Oiq-2280" value="" style="endArrow=classic;startArrow=classic;html=1;rounded=0;entryX=0.5;entryY=0.99;entryDx=0;entryDy=0;entryPerimeter=0;exitX=0.5;exitY=0;exitDx=0;exitDy=0;exitPerimeter=0;" parent="1" source="ALVtA8sfWFsUMaP69Oiq-2257" target="ALVtA8sfWFsUMaP69Oiq-2259" edge="1">
          <mxGeometry width="50" height="50" relative="1" as="geometry">
            <mxPoint x="640" y="-770" as="sourcePoint" />
            <mxPoint x="690" y="-820" as="targetPoint" />
          </mxGeometry>
        </mxCell>
        <mxCell id="ALVtA8sfWFsUMaP69Oiq-2283" value="10G&lt;br&gt;" style="edgeLabel;html=1;align=center;verticalAlign=middle;resizable=0;points=[];" parent="ALVtA8sfWFsUMaP69Oiq-2280" vertex="1" connectable="0">
          <mxGeometry x="0.1452" y="-2" relative="1" as="geometry">
            <mxPoint as="offset" />
          </mxGeometry>
        </mxCell>
        <mxCell id="ALVtA8sfWFsUMaP69Oiq-2281" value="" style="endArrow=classic;startArrow=classic;html=1;rounded=0;entryX=0.5;entryY=0.99;entryDx=0;entryDy=0;entryPerimeter=0;exitX=0.5;exitY=0;exitDx=0;exitDy=0;exitPerimeter=0;" parent="1" source="ALVtA8sfWFsUMaP69Oiq-2257" target="ALVtA8sfWFsUMaP69Oiq-2258" edge="1">
          <mxGeometry width="50" height="50" relative="1" as="geometry">
            <mxPoint x="507" y="-650.94" as="sourcePoint" />
            <mxPoint x="-70" y="-820" as="targetPoint" />
          </mxGeometry>
        </mxCell>
        <mxCell id="ALVtA8sfWFsUMaP69Oiq-2282" value="10G&lt;br&gt;" style="edgeLabel;html=1;align=center;verticalAlign=middle;resizable=0;points=[];" parent="ALVtA8sfWFsUMaP69Oiq-2281" vertex="1" connectable="0">
          <mxGeometry x="0.119" y="1" relative="1" as="geometry">
            <mxPoint x="1" as="offset" />
          </mxGeometry>
        </mxCell>
        <mxCell id="ALVtA8sfWFsUMaP69Oiq-2300" style="edgeStyle=orthogonalEdgeStyle;rounded=0;orthogonalLoop=1;jettySize=auto;html=1;" parent="1" source="ALVtA8sfWFsUMaP69Oiq-2286" target="ALVtA8sfWFsUMaP69Oiq-2292" edge="1">
          <mxGeometry relative="1" as="geometry" />
        </mxCell>
        <mxCell id="ALVtA8sfWFsUMaP69Oiq-2301" value="聚合下联&lt;br&gt;40G" style="edgeLabel;html=1;align=center;verticalAlign=middle;resizable=0;points=[];" parent="ALVtA8sfWFsUMaP69Oiq-2300" vertex="1" connectable="0">
          <mxGeometry x="-0.0968" relative="1" as="geometry">
            <mxPoint as="offset" />
          </mxGeometry>
        </mxCell>
        <mxCell id="ALVtA8sfWFsUMaP69Oiq-2305" value="Ag2" style="edgeLabel;html=1;align=center;verticalAlign=middle;resizable=0;points=[];" parent="ALVtA8sfWFsUMaP69Oiq-2300" vertex="1" connectable="0">
          <mxGeometry x="-0.7042" y="-1" relative="1" as="geometry">
            <mxPoint as="offset" />
          </mxGeometry>
        </mxCell>
        <mxCell id="ALVtA8sfWFsUMaP69Oiq-2286" value="RG-WALL 1600-X9500&lt;br&gt;防火墙" style="shape=mxgraph.cisco.security.firewall;sketch=0;html=1;pointerEvents=1;dashed=0;fillColor=#036897;strokeColor=#ffffff;strokeWidth=2;verticalLabelPosition=bottom;verticalAlign=top;align=center;outlineConnect=0;" parent="1" vertex="1">
          <mxGeometry x="310.5" y="-670" width="109.5" height="100" as="geometry" />
        </mxCell>
        <mxCell id="ALVtA8sfWFsUMaP69Oiq-2309" style="edgeStyle=orthogonalEdgeStyle;rounded=0;orthogonalLoop=1;jettySize=auto;html=1;entryX=0;entryY=0.5;entryDx=0;entryDy=0;entryPerimeter=0;" parent="1" source="ALVtA8sfWFsUMaP69Oiq-2292" target="ALVtA8sfWFsUMaP69Oiq-2308" edge="1">
          <mxGeometry relative="1" as="geometry" />
        </mxCell>
        <mxCell id="ALVtA8sfWFsUMaP69Oiq-2313" value="Te1/1/1&lt;br&gt;" style="edgeLabel;html=1;align=center;verticalAlign=middle;resizable=0;points=[];" parent="ALVtA8sfWFsUMaP69Oiq-2309" vertex="1" connectable="0">
          <mxGeometry x="0.4353" y="-2" relative="1" as="geometry">
            <mxPoint as="offset" />
          </mxGeometry>
        </mxCell>
        <mxCell id="ALVtA8sfWFsUMaP69Oiq-2292" value="N18010-1" style="shape=mxgraph.cisco.routers.atm_tag_switch_router;sketch=0;html=1;pointerEvents=1;dashed=0;fillColor=#036897;strokeColor=#ffffff;strokeWidth=2;verticalLabelPosition=bottom;verticalAlign=top;align=center;outlineConnect=0;" parent="1" vertex="1">
          <mxGeometry x="245" y="-490" width="64" height="82" as="geometry" />
        </mxCell>
        <mxCell id="ALVtA8sfWFsUMaP69Oiq-2302" style="edgeStyle=orthogonalEdgeStyle;rounded=0;orthogonalLoop=1;jettySize=auto;html=1;entryX=1;entryY=0.5;entryDx=0;entryDy=0;entryPerimeter=0;" parent="1" source="ALVtA8sfWFsUMaP69Oiq-2293" target="ALVtA8sfWFsUMaP69Oiq-2286" edge="1">
          <mxGeometry relative="1" as="geometry" />
        </mxCell>
        <mxCell id="ALVtA8sfWFsUMaP69Oiq-2303" value="聚合上联&lt;br&gt;40G" style="edgeLabel;html=1;align=center;verticalAlign=middle;resizable=0;points=[];" parent="ALVtA8sfWFsUMaP69Oiq-2302" vertex="1" connectable="0">
          <mxGeometry x="0.1904" y="-1" relative="1" as="geometry">
            <mxPoint as="offset" />
          </mxGeometry>
        </mxCell>
        <mxCell id="ALVtA8sfWFsUMaP69Oiq-2306" value="Ag1&lt;br&gt;" style="edgeLabel;html=1;align=center;verticalAlign=middle;resizable=0;points=[];" parent="ALVtA8sfWFsUMaP69Oiq-2302" vertex="1" connectable="0">
          <mxGeometry x="0.7536" y="-1" relative="1" as="geometry">
            <mxPoint as="offset" />
          </mxGeometry>
        </mxCell>
        <mxCell id="ALVtA8sfWFsUMaP69Oiq-2310" style="edgeStyle=orthogonalEdgeStyle;rounded=0;orthogonalLoop=1;jettySize=auto;html=1;exitX=0.5;exitY=1;exitDx=0;exitDy=0;exitPerimeter=0;entryX=1;entryY=0.5;entryDx=0;entryDy=0;entryPerimeter=0;" parent="1" source="ALVtA8sfWFsUMaP69Oiq-2293" target="ALVtA8sfWFsUMaP69Oiq-2308" edge="1">
          <mxGeometry relative="1" as="geometry" />
        </mxCell>
        <mxCell id="ALVtA8sfWFsUMaP69Oiq-2314" value="Te2/1/1&lt;br&gt;" style="edgeLabel;html=1;align=center;verticalAlign=middle;resizable=0;points=[];" parent="ALVtA8sfWFsUMaP69Oiq-2310" vertex="1" connectable="0">
          <mxGeometry x="0.3566" relative="1" as="geometry">
            <mxPoint as="offset" />
          </mxGeometry>
        </mxCell>
        <mxCell id="ALVtA8sfWFsUMaP69Oiq-2293" value="N18010-2" style="shape=mxgraph.cisco.routers.atm_tag_switch_router;sketch=0;html=1;pointerEvents=1;dashed=0;fillColor=#036897;strokeColor=#ffffff;strokeWidth=2;verticalLabelPosition=bottom;verticalAlign=top;align=center;outlineConnect=0;" parent="1" vertex="1">
          <mxGeometry x="420" y="-490" width="64" height="82" as="geometry" />
        </mxCell>
        <mxCell id="ALVtA8sfWFsUMaP69Oiq-2296" value="" style="endArrow=classic;startArrow=classic;html=1;rounded=0;" parent="1" source="ALVtA8sfWFsUMaP69Oiq-2292" target="ALVtA8sfWFsUMaP69Oiq-2293" edge="1">
          <mxGeometry width="50" height="50" relative="1" as="geometry">
            <mxPoint x="330" y="-430" as="sourcePoint" />
            <mxPoint x="390" y="-430" as="targetPoint" />
          </mxGeometry>
        </mxCell>
        <mxCell id="ALVtA8sfWFsUMaP69Oiq-2299" value="20G&lt;br&gt;交换" style="edgeLabel;html=1;align=center;verticalAlign=middle;resizable=0;points=[];" parent="ALVtA8sfWFsUMaP69Oiq-2296" vertex="1" connectable="0">
          <mxGeometry x="0.0284" y="-1" relative="1" as="geometry">
            <mxPoint as="offset" />
          </mxGeometry>
        </mxCell>
        <mxCell id="ALVtA8sfWFsUMaP69Oiq-2322" style="edgeStyle=orthogonalEdgeStyle;rounded=0;orthogonalLoop=1;jettySize=auto;html=1;entryX=0.5;entryY=0;entryDx=0;entryDy=0;entryPerimeter=0;" parent="1" source="ALVtA8sfWFsUMaP69Oiq-2308" target="ALVtA8sfWFsUMaP69Oiq-2320" edge="1">
          <mxGeometry relative="1" as="geometry" />
        </mxCell>
        <mxCell id="ALVtA8sfWFsUMaP69Oiq-2308" value="&lt;font color=&quot;#000000&quot;&gt;天融信防火墙&lt;/font&gt;" style="fontColor=#0066CC;verticalAlign=top;verticalLabelPosition=bottom;labelPosition=center;align=center;html=1;outlineConnect=0;fillColor=#CCCCCC;strokeColor=#47587A;gradientColor=none;gradientDirection=north;strokeWidth=2;shape=mxgraph.networks.firewall;" parent="1" vertex="1">
          <mxGeometry x="309" y="-300" width="100" height="100" as="geometry" />
        </mxCell>
        <mxCell id="ALVtA8sfWFsUMaP69Oiq-2315" value="天融信漏扫" style="image;aspect=fixed;html=1;points=[];align=center;fontSize=12;image=img/lib/azure2/security/Detonation.svg;fontColor=#000000;" parent="1" vertex="1">
          <mxGeometry x="90" y="-590" width="66" height="68" as="geometry" />
        </mxCell>
        <mxCell id="ALVtA8sfWFsUMaP69Oiq-2316" value="天融信上网行为管理" style="image;aspect=fixed;html=1;points=[];align=center;fontSize=12;image=img/lib/azure2/security/Application_Security_Groups.svg;" parent="1" vertex="1">
          <mxGeometry x="100" y="-490" width="56.00000000000001" height="68" as="geometry" />
        </mxCell>
        <mxCell id="ALVtA8sfWFsUMaP69Oiq-2318" value="天融信日志审计虚拟机" style="image;sketch=0;aspect=fixed;html=1;points=[];align=center;fontSize=12;image=img/lib/mscae/Security_Center.svg;" parent="1" vertex="1">
          <mxGeometry x="95.6" y="-390" width="64.8" height="90" as="geometry" />
        </mxCell>
        <mxCell id="ALVtA8sfWFsUMaP69Oiq-2324" style="edgeStyle=orthogonalEdgeStyle;rounded=0;orthogonalLoop=1;jettySize=auto;html=1;entryX=0.501;entryY=0.015;entryDx=0;entryDy=0;entryPerimeter=0;" parent="1" source="ALVtA8sfWFsUMaP69Oiq-2320" target="ALVtA8sfWFsUMaP69Oiq-2321" edge="1">
          <mxGeometry relative="1" as="geometry" />
        </mxCell>
        <mxCell id="ALVtA8sfWFsUMaP69Oiq-2320" value="入侵防御系统" style="sketch=0;points=[[0.015,0.015,0],[0.985,0.015,0],[0.985,0.985,0],[0.015,0.985,0],[0.25,0,0],[0.5,0,0],[0.75,0,0],[1,0.25,0],[1,0.5,0],[1,0.75,0],[0.75,1,0],[0.5,1,0],[0.25,1,0],[0,0.75,0],[0,0.5,0],[0,0.25,0]];verticalLabelPosition=bottom;html=1;verticalAlign=top;aspect=fixed;align=center;pointerEvents=1;shape=mxgraph.cisco19.rect;prIcon=nac_appliance;fillColor=#FAFAFA;strokeColor=#005073;" parent="1" vertex="1">
          <mxGeometry x="320.6" y="-140" width="76.8" height="60" as="geometry" />
        </mxCell>
        <mxCell id="ALVtA8sfWFsUMaP69Oiq-2329" style="edgeStyle=orthogonalEdgeStyle;rounded=0;orthogonalLoop=1;jettySize=auto;html=1;exitX=0;exitY=0.5;exitDx=0;exitDy=0;exitPerimeter=0;" parent="1" source="iXKRna1suz0sFZiJSeBb-6" target="ALVtA8sfWFsUMaP69Oiq-2326" edge="1">
          <mxGeometry relative="1" as="geometry" />
        </mxCell>
        <mxCell id="iXKRna1suz0sFZiJSeBb-7" style="edgeStyle=none;rounded=0;orthogonalLoop=1;jettySize=auto;html=1;entryX=0.5;entryY=0;entryDx=0;entryDy=0;entryPerimeter=0;" edge="1" parent="1" source="ALVtA8sfWFsUMaP69Oiq-2321" target="iXKRna1suz0sFZiJSeBb-6">
          <mxGeometry relative="1" as="geometry" />
        </mxCell>
        <mxCell id="ALVtA8sfWFsUMaP69Oiq-2321" value="web应用防火墙" style="verticalLabelPosition=bottom;sketch=0;html=1;fillColor=#282828;strokeColor=none;verticalAlign=top;pointerEvents=1;align=center;shape=mxgraph.cisco_safe.security_icons.icon9;" parent="1" vertex="1">
          <mxGeometry x="299" y="-10" width="120" height="110" as="geometry" />
        </mxCell>
        <mxCell id="ALVtA8sfWFsUMaP69Oiq-2325" value="RG-S5750C-28GT4XS-H&lt;br&gt;服务器汇聚交换机" style="shape=mxgraph.cisco.switches.multiswitch_device;sketch=0;html=1;pointerEvents=1;dashed=0;fillColor=#036897;strokeColor=#ffffff;strokeWidth=2;verticalLabelPosition=bottom;verticalAlign=top;align=center;outlineConnect=0;" parent="1" vertex="1">
          <mxGeometry x="505" y="180" width="101" height="64" as="geometry" />
        </mxCell>
        <mxCell id="ALVtA8sfWFsUMaP69Oiq-2326" value="RG-S6000C-48GT4XS-E&lt;br&gt;服务器汇聚交换机" style="shape=mxgraph.cisco.switches.multiswitch_device;sketch=0;html=1;pointerEvents=1;dashed=0;fillColor=#036897;strokeColor=#ffffff;strokeWidth=2;verticalLabelPosition=bottom;verticalAlign=top;align=center;outlineConnect=0;" parent="1" vertex="1">
          <mxGeometry x="72.5" y="180" width="101" height="64" as="geometry" />
        </mxCell>
        <mxCell id="ALVtA8sfWFsUMaP69Oiq-2331" value="" style="endArrow=classic;startArrow=classic;html=1;rounded=0;exitX=1.048;exitY=0.547;exitDx=0;exitDy=0;exitPerimeter=0;" parent="1" source="ALVtA8sfWFsUMaP69Oiq-2318" target="ALVtA8sfWFsUMaP69Oiq-2292" edge="1">
          <mxGeometry width="50" height="50" relative="1" as="geometry">
            <mxPoint x="180" y="-430" as="sourcePoint" />
            <mxPoint x="230" y="-480" as="targetPoint" />
          </mxGeometry>
        </mxCell>
        <mxCell id="ALVtA8sfWFsUMaP69Oiq-2332" value="" style="endArrow=classic;startArrow=classic;html=1;rounded=0;entryX=0;entryY=0.5;entryDx=0;entryDy=0;entryPerimeter=0;exitX=0.893;exitY=0.588;exitDx=0;exitDy=0;exitPerimeter=0;" parent="1" source="ALVtA8sfWFsUMaP69Oiq-2316" target="ALVtA8sfWFsUMaP69Oiq-2292" edge="1">
          <mxGeometry width="50" height="50" relative="1" as="geometry">
            <mxPoint x="180" y="-430" as="sourcePoint" />
            <mxPoint x="230" y="-480" as="targetPoint" />
          </mxGeometry>
        </mxCell>
        <mxCell id="ALVtA8sfWFsUMaP69Oiq-2333" value="" style="endArrow=classic;startArrow=classic;html=1;rounded=0;entryX=0.966;entryY=0.591;entryDx=0;entryDy=0;entryPerimeter=0;" parent="1" source="ALVtA8sfWFsUMaP69Oiq-2292" target="ALVtA8sfWFsUMaP69Oiq-2315" edge="1">
          <mxGeometry width="50" height="50" relative="1" as="geometry">
            <mxPoint x="170" y="-510" as="sourcePoint" />
            <mxPoint x="180" y="-570" as="targetPoint" />
          </mxGeometry>
        </mxCell>
        <mxCell id="iXKRna1suz0sFZiJSeBb-1" value="RG-S5750C-28GT4XS-H&lt;br&gt;服务器汇聚交换机" style="shape=mxgraph.cisco.switches.multiswitch_device;sketch=0;html=1;pointerEvents=1;dashed=0;fillColor=#036897;strokeColor=#ffffff;strokeWidth=2;verticalLabelPosition=bottom;verticalAlign=top;align=center;outlineConnect=0;" vertex="1" parent="1">
          <mxGeometry x="650" y="180" width="101" height="64" as="geometry" />
        </mxCell>
        <mxCell id="iXKRna1suz0sFZiJSeBb-3" value="" style="endArrow=classic;startArrow=classic;html=1;rounded=0;entryX=0;entryY=0.5;entryDx=0;entryDy=0;entryPerimeter=0;exitX=1;exitY=0.5;exitDx=0;exitDy=0;exitPerimeter=0;" edge="1" parent="1" source="ALVtA8sfWFsUMaP69Oiq-2325" target="iXKRna1suz0sFZiJSeBb-1">
          <mxGeometry width="50" height="50" relative="1" as="geometry">
            <mxPoint x="250" y="330" as="sourcePoint" />
            <mxPoint x="300" y="280" as="targetPoint" />
          </mxGeometry>
        </mxCell>
        <mxCell id="iXKRna1suz0sFZiJSeBb-14" style="edgeStyle=none;rounded=0;orthogonalLoop=1;jettySize=auto;html=1;" edge="1" parent="1" source="iXKRna1suz0sFZiJSeBb-6" target="ALVtA8sfWFsUMaP69Oiq-2325">
          <mxGeometry relative="1" as="geometry" />
        </mxCell>
        <mxCell id="iXKRna1suz0sFZiJSeBb-6" value="华为交换机&lt;br&gt;服务器汇聚交换机" style="shape=mxgraph.cisco.switches.multiswitch_device;sketch=0;html=1;pointerEvents=1;dashed=0;fillColor=#036897;strokeColor=#ffffff;strokeWidth=2;verticalLabelPosition=bottom;verticalAlign=top;align=center;outlineConnect=0;" vertex="1" parent="1">
          <mxGeometry x="303.63" y="180" width="101" height="64" as="geometry" />
        </mxCell>
      </root>
    </mxGraphModel>
  </diagram>
</mxfile>
